<?xml version="1.0" encoding="UTF-8" standalone="no"?>
<svg
   xmlns:dc="http://purl.org/dc/elements/1.1/"
   xmlns:cc="http://creativecommons.org/ns#"
   xmlns:rdf="http://www.w3.org/1999/02/22-rdf-syntax-ns#"
   xmlns:svg="http://www.w3.org/2000/svg"
   xmlns="http://www.w3.org/2000/svg"
   xmlns:sodipodi="http://sodipodi.sourceforge.net/DTD/sodipodi-0.dtd"
   xmlns:inkscape="http://www.inkscape.org/namespaces/inkscape"
   inkscape:export-ydpi="96"
   inkscape:export-xdpi="96"
   inkscape:export-filename="D:\Daniil\_misc\DebuDuet\assets\sprites\fx.png"
   sodipodi:docname="fx.svg"
   inkscape:version="1.0 (4035a4fb49, 2020-05-01)"
   id="svg8"
   version="1.1"
   viewBox="0 0 135.46666 135.46667"
   height="512"
   width="512">
  <defs
     id="defs2" />
  <sodipodi:namedview
     inkscape:window-maximized="1"
     inkscape:window-y="-8"
     inkscape:window-x="-8"
     inkscape:window-height="1017"
     inkscape:window-width="1920"
     inkscape:snap-global="false"
     units="px"
     showgrid="false"
     inkscape:document-rotation="0"
     inkscape:current-layer="layer1"
     inkscape:document-units="mm"
     inkscape:cy="253.63028"
     inkscape:cx="205.65059"
     inkscape:zoom="0.7"
     inkscape:pageshadow="2"
     inkscape:pageopacity="0.0"
     borderopacity="1.0"
     bordercolor="#666666"
     pagecolor="#ffffff"
     id="base" />
  <metadata
     id="metadata5">
    <rdf:RDF>
      <cc:Work
         rdf:about="">
        <dc:format>image/svg+xml</dc:format>
        <dc:type
           rdf:resource="http://purl.org/dc/dcmitype/StillImage" />
        <dc:title></dc:title>
      </cc:Work>
    </rdf:RDF>
  </metadata>
  <g
     id="layer1"
     inkscape:groupmode="layer"
     inkscape:label="Layer 1">
    <path
       sodipodi:nodetypes="cccccccc"
       id="path843"
       d="M 55.184524,120.19643 C 32.594649,113.27293 4.754473,103.19858 3.7997598,91.783318 2.8689487,80.65385 27.766192,63.998596 35.529762,56.696428 20.13335,31.039186 36.886154,15.839575 59.342261,18.142857 67.323753,18.840636 97.0684,23.322379 81.367027,42.165645 122.68991,60.61939 137.22874,65.404397 129.26786,91.848214 120.875,109.11216 116.01669,107.97165 93.319608,92.116502 79.610609,111.87572 77.531538,125.06674 55.184524,120.19643 Z"
       style="fill:#ffffff;fill-opacity:1;stroke:none;stroke-width:0.264583px;stroke-linecap:butt;stroke-linejoin:miter;stroke-opacity:1" />
    <path
       sodipodi:nodetypes="ssssss"
       id="path833"
       d="M 12.673151,104.04894 C -21.288436,85.045448 41.902004,64.492362 34.852601,53.423344 2.3840006,2.440939 111.25588,13.932041 82.46544,40.004249 71.654857,49.794158 140.04299,49.379006 131.31381,84.223168 118.79878,134.17931 96.846747,80.331787 89.855218,93.374824 73.904852,123.13098 62.425795,131.88844 12.673151,104.04894 Z"
       style="fill:none;stroke:#50162d;stroke-width:4.23333333;stroke-linecap:round;stroke-linejoin:round;stroke-miterlimit:4;stroke-dasharray:101.6,4.23333333;stroke-dashoffset:0;stroke-opacity:1" />
  </g>
</svg>
