<?xml version="1.0" encoding="UTF-8" standalone="no"?>
<svg
   xmlns:dc="http://purl.org/dc/elements/1.1/"
   xmlns:cc="http://creativecommons.org/ns#"
   xmlns:rdf="http://www.w3.org/1999/02/22-rdf-syntax-ns#"
   xmlns:svg="http://www.w3.org/2000/svg"
   xmlns="http://www.w3.org/2000/svg"
   xmlns:sodipodi="http://sodipodi.sourceforge.net/DTD/sodipodi-0.dtd"
   xmlns:inkscape="http://www.inkscape.org/namespaces/inkscape"
   inkscape:export-ydpi="96"
   inkscape:export-xdpi="96"
   inkscape:export-filename="D:\Daniil\_misc\DebuDuet\assets\sprites\kiwi.png"
   sodipodi:docname="kiwi.svg"
   inkscape:version="1.0 (4035a4fb49, 2020-05-01)"
   id="svg8"
   version="1.1"
   viewBox="0 0 135.46666 135.46667"
   height="512"
   width="512">
  <defs
     id="defs2" />
  <sodipodi:namedview
     inkscape:window-maximized="1"
     inkscape:window-y="-8"
     inkscape:window-x="-8"
     inkscape:window-height="1017"
     inkscape:window-width="1920"
     inkscape:snap-global="false"
     units="px"
     showgrid="false"
     inkscape:document-rotation="0"
     inkscape:current-layer="layer1"
     inkscape:document-units="mm"
     inkscape:cy="201.62379"
     inkscape:cx="210.3592"
     inkscape:zoom="0.7"
     inkscape:pageshadow="2"
     inkscape:pageopacity="0.0"
     borderopacity="1.0"
     bordercolor="#666666"
     pagecolor="#ffffff"
     id="base" />
  <metadata
     id="metadata5">
    <rdf:RDF>
      <cc:Work
         rdf:about="">
        <dc:format>image/svg+xml</dc:format>
        <dc:type
           rdf:resource="http://purl.org/dc/dcmitype/StillImage" />
        <dc:title></dc:title>
      </cc:Work>
    </rdf:RDF>
  </metadata>
  <g
     id="layer1"
     inkscape:groupmode="layer"
     inkscape:label="Layer 1">
    <path
       sodipodi:nodetypes="ccccc"
       id="path873"
       d="M 7.5595238,54.655353 C 20.12966,67.334851 36.695635,71.451835 56.318451,69.018447 73.163554,95.991384 111.53966,103.34254 128.13393,71.286305 127.11807,117.49672 99.658643,148.21918 63.499999,109.46187 27.88163,136.9514 12.856687,88.136349 7.5595238,54.655353 Z"
       style="fill:#68432e;fill-opacity:1;stroke:none;stroke-width:0.264583px;stroke-linecap:butt;stroke-linejoin:miter;stroke-opacity:1" />
    <path
       sodipodi:nodetypes="cccc"
       id="path875"
       d="M 20.410714,99.256516 C 51.806348,118.2535 46.505068,92.83918 55.562499,71.286305 L 64.633927,110.5958 C 44.494772,123.61007 31.556478,114.22167 20.410714,99.256516 Z"
       style="fill:#3a2222;fill-opacity:1;stroke:none;stroke-width:0.264583px;stroke-linecap:butt;stroke-linejoin:miter;stroke-opacity:1" />
    <path
       sodipodi:nodetypes="ccsc"
       id="path877"
       d="m 61.988093,102.28032 c 14.545275,19.18646 45.681457,19.28354 58.586307,5.29167 0,0 -8.1792,20.26517 -29.860116,19.27678 -19.749176,-0.90032 -28.726191,-24.56845 -28.726191,-24.56845 z"
       style="fill:#3a2222;fill-opacity:1;stroke:none;stroke-width:0.264583px;stroke-linecap:butt;stroke-linejoin:miter;stroke-opacity:1" />
    <path
       sodipodi:nodetypes="ccccc"
       id="path879"
       d="M 6.4255951,44.07202 C 19.122818,25.321031 38.771057,22.016742 60.47619,23.283329 73.414104,-3.1005537 131.05154,12.6937 120.19643,46.717853 150.15732,82.197183 83.755846,113.56186 55.940475,69.396423 22.108334,71.657038 5.9887831,62.977523 6.4255951,44.07202 Z"
       style="fill:#3f9d54;fill-opacity:1;stroke:none;stroke-width:0.264583px;stroke-linecap:butt;stroke-linejoin:miter;stroke-opacity:1" />
    <g
       transform="translate(0,-5.8208336)"
       id="g871">
      <path
         style="fill:none;stroke:#50162d;stroke-width:4.23333;stroke-linecap:round;stroke-linejoin:round;stroke-miterlimit:4;stroke-dasharray:101.6, 4.23333;stroke-dashoffset:0;stroke-opacity:1"
         d="M 7.6278907,49.407589 C 3.9244716,76.13097 42.41344,80.09345 61.472221,73.225783 88.409063,63.519323 91.288388,45.051967 72.139493,33.889672 48.668354,20.207851 9.7755155,33.910612 7.6278907,49.407589 Z"
         id="path833"
         sodipodi:nodetypes="ssss" />
      <path
         sodipodi:nodetypes="csc"
         id="path835"
         d="M 57.908524,77.104749 C 78.139604,109.12459 119.35888,100.96935 126.8181,77.691602 135.05093,51.999677 105.41611,40.185905 82.649891,47.879739"
         style="fill:none;stroke:#50162d;stroke-width:4.23333;stroke-linecap:round;stroke-linejoin:round;stroke-miterlimit:4;stroke-dasharray:101.6, 4.23333;stroke-dashoffset:0;stroke-opacity:1" />
      <path
         style="fill:none;stroke:#50162d;stroke-width:4.23333;stroke-linecap:round;stroke-linejoin:round;stroke-miterlimit:4;stroke-dasharray:101.6, 4.23333;stroke-dashoffset:0;stroke-opacity:1"
         d="M 119.88469,50.725316 C 124.80008,34.019614 110.83023,19.917538 99.514277,17.317134 84.821451,13.940721 62.18394,16.374642 60.940526,27.555004"
         id="path837"
         sodipodi:nodetypes="csc" />
      <path
         style="fill:none;stroke:#50162d;stroke-width:4.23333;stroke-linecap:round;stroke-linejoin:round;stroke-miterlimit:4;stroke-dasharray:101.6, 4.23333;stroke-dashoffset:0;stroke-opacity:1"
         d="m 56.39387,75.637275 c 0,0 -2.276389,56.492525 36.348654,57.195675 35.924046,0.65398 35.814116,-59.333831 35.814116,-59.333831"
         id="path839"
         sodipodi:nodetypes="csc" />
      <path
         sodipodi:nodetypes="csc"
         id="path841"
         d="m 8.0180855,58.532025 c 0,0 0.6635758,62.372455 39.2886195,63.075605 7.495772,0.13646 13.29472,-2.62327 17.778605,-7.0765"
         style="fill:none;stroke:#50162d;stroke-width:4.23333;stroke-linecap:round;stroke-linejoin:round;stroke-miterlimit:4;stroke-dasharray:101.6, 4.23333;stroke-dashoffset:0;stroke-opacity:1" />
      <path
         sodipodi:nodetypes="ssss"
         id="path857"
         d="M 26.23657,50.164806 C 24.519434,62.555434 42.365322,64.392687 51.202163,61.208408 63.691764,56.707887 65.026799,48.145268 56.148176,42.969731 45.265491,36.625985 27.232343,42.979441 26.23657,50.164806 Z"
         style="fill:none;stroke:#50162d;stroke-width:4.23333;stroke-linecap:round;stroke-linejoin:round;stroke-miterlimit:4;stroke-dasharray:4.23333, 8.46667;stroke-dashoffset:0;stroke-opacity:1" />
      <path
         style="fill:none;stroke:#50162d;stroke-width:4.23333;stroke-linecap:round;stroke-linejoin:round;stroke-miterlimit:4;stroke-dasharray:4.23333, 8.46667;stroke-dashoffset:0;stroke-opacity:1"
         d="M 77.263356,65.283853 C 75.54622,77.674481 89.90284,83.299638 99.20514,81.997098 112.45069,80.14241 117.94347,68.178006 109.06484,63.002469 98.182158,56.658723 78.259129,58.098488 77.263356,65.283853 Z"
         id="path859"
         sodipodi:nodetypes="ssss" />
      <path
         sodipodi:nodetypes="cc"
         id="path861"
         d="M 99.615435,44.481635 C 114.94079,30.070968 78.942908,19.106776 71.971689,36.179686"
         style="fill:none;stroke:#50162d;stroke-width:4.23333;stroke-linecap:round;stroke-linejoin:round;stroke-miterlimit:4;stroke-dasharray:4.23333, 8.46667;stroke-dashoffset:0;stroke-opacity:1" />
    </g>
  </g>
</svg>
