<?xml version="1.0" encoding="UTF-8" standalone="no"?>
<svg
   xmlns:dc="http://purl.org/dc/elements/1.1/"
   xmlns:cc="http://creativecommons.org/ns#"
   xmlns:rdf="http://www.w3.org/1999/02/22-rdf-syntax-ns#"
   xmlns:svg="http://www.w3.org/2000/svg"
   xmlns="http://www.w3.org/2000/svg"
   xmlns:xlink="http://www.w3.org/1999/xlink"
   xmlns:sodipodi="http://sodipodi.sourceforge.net/DTD/sodipodi-0.dtd"
   xmlns:inkscape="http://www.inkscape.org/namespaces/inkscape"
   inkscape:export-ydpi="96"
   inkscape:export-xdpi="96"
   inkscape:export-filename="D:\Daniil\_misc\DebuDuet\assets\sprites\logo.png"
   sodipodi:docname="logo.svg"
   inkscape:version="1.0 (4035a4fb49, 2020-05-01)"
   id="svg8"
   version="1.1"
   viewBox="0 0 135.46666 135.46667"
   height="512"
   width="512">
  <defs
     id="defs2">
    <linearGradient
       id="linearGradient900"
       inkscape:collect="always">
      <stop
         id="stop896"
         offset="0"
         style="stop-color:#ffd42a;stop-opacity:1;" />
      <stop
         id="stop898"
         offset="1"
         style="stop-color:#5ccc25;stop-opacity:1" />
    </linearGradient>
    <rect
       id="rect835"
       height="83.655362"
       width="117.86586"
       y="25.123336"
       x="9.621703" />
    <linearGradient
       gradientUnits="userSpaceOnUse"
       y2="523.12372"
       x2="513.17407"
       y1="2.5211399"
       x1="2.4643695"
       id="linearGradient902"
       xlink:href="#linearGradient900"
       inkscape:collect="always" />
  </defs>
  <sodipodi:namedview
     inkscape:window-maximized="1"
     inkscape:window-y="-8"
     inkscape:window-x="-8"
     inkscape:window-height="1017"
     inkscape:window-width="1920"
     inkscape:snap-global="false"
     units="px"
     showgrid="false"
     inkscape:document-rotation="0"
     inkscape:current-layer="layer1"
     inkscape:document-units="mm"
     inkscape:cy="27.422769"
     inkscape:cx="369.25201"
     inkscape:zoom="0.49440186"
     inkscape:pageshadow="2"
     inkscape:pageopacity="0.0"
     borderopacity="1.0"
     bordercolor="#666666"
     pagecolor="#ffffff"
     id="base" />
  <metadata
     id="metadata5">
    <rdf:RDF>
      <cc:Work
         rdf:about="">
        <dc:format>image/svg+xml</dc:format>
        <dc:type
           rdf:resource="http://purl.org/dc/dcmitype/StillImage" />
        <dc:title></dc:title>
      </cc:Work>
    </rdf:RDF>
  </metadata>
  <g
     id="layer1"
     inkscape:groupmode="layer"
     inkscape:label="Layer 1">
    <g
       aria-label="D"
       id="g858"
       style="font-style:normal;font-variant:normal;font-weight:normal;font-stretch:normal;font-size:10.5833px;line-height:1.25;font-family:'Marko One';-inkscape-font-specification:'Marko One';letter-spacing:0px;word-spacing:0px;white-space:pre;shape-inside:url(#rect835);fill:#550044;fill-opacity:1;stroke:none"
       transform="matrix(0.83494846,0,0,0.83494846,25.718281,27.827663)">
      <path
         d="m 21.634686,51.969947 c 0.140229,-7.574558 0.582061,-14.512937 -1.695908,-21.583868 -0.876668,-2.721178 -3.300807,-3.45903 -5.550103,-4.239768 -0.800743,-0.277902 -1.233333,-1.567399 -1.233333,-4.085528 0,-2.569504 0.102927,-4.162588 0.308333,-4.779271 17.883764,-3.957049 31.399547,-5.991646 40.546829,-5.935572 35.813113,0.219576 65.749526,19.5932 66.139106,53.111716 0.45795,39.395244 -29.807749,63.834224 -71.303817,62.901544 -7.603824,-0.17095 -14.827936,-0.18721 -21.352609,-1.92713 -3.540853,-0.94425 -5.455426,-4.92403 -5.781392,-10.63777 -1.162924,-20.385241 -0.48495,-40.802359 -0.07757,-62.824353 z m 25.129657,64.443243 c 4.718573,1.5434 10.110706,0.64919 14.414931,0.23137 9.066894,-0.88011 17.177686,-5.5798 22.508883,-11.94822 C 92.086875,94.663573 94.916964,81.562082 94.788438,69.622573 94.666121,58.232006 92.555759,46.709368 86.000715,37.940544 c -2.572322,-3.441041 -5.462033,-6.4784 -8.941887,-8.710618 -11.23661,-7.207943 -21.412831,-7.534878 -34.071665,-5.627179 3.60899,24.949116 1.017037,81.871183 3.77718,92.810443 z"
         style="font-style:normal;font-variant:normal;font-weight:normal;font-stretch:normal;font-family:'Marko One';-inkscape-font-specification:'Marko One';stroke-width:14.917;fill:#550044;fill-opacity:1"
         id="path856"
         sodipodi:nodetypes="cssscssssssccssssscc" />
    </g>
    <g
       transform="matrix(0.83494846,0,0,0.83494846,-5.3209088,-3.7466851)"
       style="font-style:normal;font-variant:normal;font-weight:normal;font-stretch:normal;font-size:10.5833px;line-height:1.25;font-family:'Marko One';-inkscape-font-specification:'Marko One';letter-spacing:0px;word-spacing:0px;white-space:pre;shape-inside:url(#rect835);fill:#550044;fill-opacity:1;stroke:none"
       id="text833"
       aria-label="D">
      <path
         sodipodi:nodetypes="cssscssssssccssssscc"
         id="path839"
         style="font-style:normal;font-variant:normal;font-weight:normal;font-stretch:normal;font-family:'Marko One';-inkscape-font-specification:'Marko One';stroke-width:14.917;fill:#550044;fill-opacity:1"
         d="m 21.634686,51.969947 c 0.140229,-7.574558 0.582061,-14.512937 -1.695908,-21.583868 -0.876668,-2.721178 -3.300807,-3.45903 -5.550103,-4.239768 -0.800743,-0.277902 -1.233333,-1.567399 -1.233333,-4.085528 0,-2.569504 0.102927,-4.162588 0.308333,-4.779271 17.883764,-3.957049 31.399547,-5.991646 40.546829,-5.935572 35.813113,0.219576 65.749526,19.5932 66.139106,53.111716 0.45795,39.395244 -29.807749,63.834224 -71.303817,62.901544 -7.603824,-0.17095 -14.827936,-0.18721 -21.352609,-1.92713 -3.540853,-0.94425 -5.455426,-4.92403 -5.781392,-10.63777 -1.162924,-20.385241 -0.48495,-40.802359 -0.07757,-62.824353 z m 25.129657,64.443243 c 4.718573,1.5434 10.110706,0.64919 14.414931,0.23137 9.066894,-0.88011 17.177686,-5.5798 22.508883,-11.94822 C 92.086875,94.663573 94.916964,81.562082 94.788438,69.622573 94.666121,58.232006 92.555759,46.709368 86.000715,37.940544 c -2.572322,-3.441041 -5.462033,-6.4784 -8.941887,-8.710618 -11.23661,-7.207943 -21.412831,-7.534878 -34.071665,-5.627179 3.60899,24.949116 1.017037,81.871183 3.77718,92.810443 z" />
    </g>
    <path
       sodipodi:nodetypes="scscccscscsccscsssssccscccccccssccccscccscccc"
       transform="scale(0.26458333)"
       d="M 157.41992,28.615234 C 130.50157,28.420168 95.52186,31.123228 52.505859,36.5 c -0.826888,1.87713 -1.618701,6.852518 -2.375,14.925781 -0.741176,7.911848 0.23973,12.090377 2.673829,13.199219 6.837388,3.115094 14.235943,6.147229 16.189453,14.955078 5.076045,22.887032 1.644668,44.556812 -1.025391,68.314452 -7.761838,69.07219 -15.901788,133.02228 -18.248047,197.41406 -0.657589,18.04826 4.185933,31.116 15.033203,35.125 19.988104,7.3872 42.680934,9.56465 66.521484,12.33985 13.76555,1.60232 27.21663,2.26356 40.2832,2.03906 -2.06679,23.393 -3.67835,46.58568 -4.52539,69.83203 -0.65759,18.04827 4.18789,31.11598 15.03516,35.125 19.9881,7.38716 42.68093,9.56465 66.52148,12.33985 C 378.69406,527.2536 480.98011,459.37574 491.13672,335.46289 497.84228,253.655 446.13738,193.37828 370.09375,165.22461 351.49522,88.548288 274.85098,39.092897 181.65039,29.785156 174.46943,29.068017 166.39271,28.680257 157.41992,28.615234 Z m 4.3125,35.892578 c 32.00365,0.06722 59.07186,6.352956 87.07031,28.251954 10.27652,8.037774 18.46196,18.431274 25.53125,30.000004 4.89072,8.00356 8.6862,16.55151 11.57032,25.4707 -28.14506,-1.19112 -66.82886,1.44884 -116.08399,7.60547 -0.82689,1.87713 -1.6187,6.85252 -2.375,14.92578 -0.74117,7.91185 0.23777,12.09038 2.67188,13.19922 6.83738,3.11509 14.23594,6.14723 16.18945,14.95508 5.07604,22.88703 1.64662,44.55681 -1.02344,68.31445 h -0.002 c -3.68431,32.78649 -7.44606,64.41097 -10.64063,95.48437 -17.35711,-0.363 -33.3547,0.54627 -46.68359,-4.94726 -5.45242,-35.18306 19.44703,-213.26556 15.45117,-292.716799 6.30234,-0.354367 12.39762,-0.555417 18.32422,-0.542969 z M 279.04688,183.84375 c 4.70547,0.01 9.30371,0.1543 13.81445,0.46289 1.1128,13.37075 0.87931,27.04679 -0.24219,40.58203 -2.85147,34.42523 -13.81229,71.18071 -38.22266,99.44531 4.32559,-52.05666 8.06415,-105.35164 6.32422,-139.94726 6.30234,-0.35437 12.39957,-0.55542 18.32618,-0.54297 z m 94.53515,34.83984 c 6.90984,6.82667 12.79911,14.79232 18.06641,23.41211 18.01447,29.48063 21.25348,66.30427 18.28515,102.12891 -3.1104,37.55124 -15.85978,77.88312 -45.20117,106.93359 -18.62483,18.44009 -45.49146,30.81964 -74.23828,30.91602 -13.64666,0.0459 -30.85139,1.26744 -45.22266,-4.9707 -2.18352,-14.08971 0.53875,-51.40188 4.28516,-95.81446 68.97274,-24.51453 116.47858,-81.30517 124.02539,-162.60547 z"
       style="font-style:normal;font-variant:normal;font-weight:normal;font-stretch:normal;font-size:10.5833px;line-height:1.25;font-family:'Marko One';-inkscape-font-specification:'Marko One';letter-spacing:0px;word-spacing:0px;white-space:pre;mix-blend-mode:normal;fill:url(#linearGradient902);fill-opacity:1;stroke:none;stroke-width:47.0736"
       id="path860" />
  </g>
</svg>
