<?xml version="1.0" encoding="UTF-8" standalone="no"?>
<svg
   xmlns:dc="http://purl.org/dc/elements/1.1/"
   xmlns:cc="http://creativecommons.org/ns#"
   xmlns:rdf="http://www.w3.org/1999/02/22-rdf-syntax-ns#"
   xmlns:svg="http://www.w3.org/2000/svg"
   xmlns="http://www.w3.org/2000/svg"
   xmlns:sodipodi="http://sodipodi.sourceforge.net/DTD/sodipodi-0.dtd"
   xmlns:inkscape="http://www.inkscape.org/namespaces/inkscape"
   inkscape:export-ydpi="96"
   inkscape:export-xdpi="96"
   inkscape:export-filename="D:\Daniil\_misc\DebuDuet\assets\sprites\sushi.png"
   sodipodi:docname="sushi.svg"
   inkscape:version="1.0 (4035a4fb49, 2020-05-01)"
   id="svg8"
   version="1.1"
   viewBox="0 0 135.46666 135.46667"
   height="512"
   width="512">
  <defs
     id="defs2" />
  <sodipodi:namedview
     inkscape:window-maximized="1"
     inkscape:window-y="-8"
     inkscape:window-x="-8"
     inkscape:window-height="1017"
     inkscape:window-width="1920"
     inkscape:snap-global="false"
     units="px"
     showgrid="false"
     inkscape:document-rotation="0"
     inkscape:current-layer="layer1"
     inkscape:document-units="mm"
     inkscape:cy="133.82313"
     inkscape:cx="289.18357"
     inkscape:zoom="0.7"
     inkscape:pageshadow="2"
     inkscape:pageopacity="0.0"
     borderopacity="1.0"
     bordercolor="#666666"
     pagecolor="#ffffff"
     id="base" />
  <metadata
     id="metadata5">
    <rdf:RDF>
      <cc:Work
         rdf:about="">
        <dc:format>image/svg+xml</dc:format>
        <dc:type
           rdf:resource="http://purl.org/dc/dcmitype/StillImage" />
        <dc:title></dc:title>
      </cc:Work>
    </rdf:RDF>
  </metadata>
  <g
     id="layer1"
     inkscape:groupmode="layer"
     inkscape:label="Layer 1">
    <path
       sodipodi:nodetypes="ccccc"
       id="path876"
       d="m 14.741071,19.276786 c 8.043248,18.033484 39.162838,17.506927 49.892856,6.047619 L 58.964284,67.27976 C 40.006634,79.254261 24.129177,76.443832 10.205357,64.255951 Z"
       style="fill:#2f554d;fill-opacity:1;stroke:none;stroke-width:0.264583;stroke-linecap:butt;stroke-linejoin:miter;stroke-miterlimit:4;stroke-dasharray:none;stroke-opacity:1" />
    <path
       sodipodi:nodetypes="ccccc"
       id="path878"
       d="M 11.717262,66.145832 C 23.612013,67.015819 34.175505,55.108494 31.75,32.505951 l 15.497024,1.13393 c -4.088297,13.046083 -11.043991,37.969085 13.607142,32.505951 -12.120922,10.065829 -37.984749,14.318501 -49.136904,0 z"
       style="fill:#50162d;fill-opacity:1;stroke:none;stroke-width:0.264583px;stroke-linecap:butt;stroke-linejoin:miter;stroke-opacity:1" />
    <path
       sodipodi:nodetypes="ccccc"
       id="path880"
       d="M 24.190476,85.800593 C 43.635094,93.961558 60.613231,85.45945 71.437499,73.327381 l 8.315476,40.443449 c -2.595034,17.51441 -29.106488,19.61455 -48.380951,11.71726 z"
       style="fill:#2f554d;fill-opacity:1;stroke:none;stroke-width:0.264583px;stroke-linecap:butt;stroke-linejoin:miter;stroke-opacity:1" />
    <path
       sodipodi:nodetypes="cccccc"
       id="path882"
       d="M 29.860118,113.39286 C 45.00986,114.93435 44.013091,99.122556 43.46726,89.580356 l 12.473215,-2.267858 c -5.730121,22.991032 3.683901,32.349832 23.8125,28.726192 -9.750748,12.4053 -25.198338,17.77181 -46.827254,11.30714 z"
       style="fill:#50162d;fill-opacity:1;stroke:none;stroke-width:0.264583px;stroke-linecap:butt;stroke-linejoin:miter;stroke-opacity:1" />
    <path
       sodipodi:nodetypes="ccccc"
       id="path884"
       d="m 75.973214,55.562499 c 16.378969,8.650176 32.757936,10.330274 49.136906,-1.133927 l 0.75595,40.443451 C 108.23378,109.713 91.973939,106.02592 76.35119,93.738093 Z"
       style="fill:#2f554d;fill-opacity:1;stroke:none;stroke-width:0.264583px;stroke-linecap:butt;stroke-linejoin:miter;stroke-opacity:1" />
    <path
       sodipodi:nodetypes="ccccccc"
       id="path886"
       d="m 75.973214,77.863093 c 13.562437,0.918155 13.490123,-8.079873 16.630952,-14.74107 l 12.851194,0.377976 c -0.47844,14.715542 1.81885,26.655357 19.27678,23.434524 v 9.449403 C 106.52738,106.61477 90.147056,106.81122 75.973214,94.872023 Z"
       style="fill:#50162d;fill-opacity:1;stroke:none;stroke-width:0.264583px;stroke-linecap:butt;stroke-linejoin:miter;stroke-opacity:1" />
    <path
       sodipodi:nodetypes="ccccc"
       id="path888"
       d="m 14.741071,17.008928 c 6.823503,-5.289412 16.990556,-6.678015 29.860119,-4.91369 8.850327,1.733006 18.579657,2.587009 19.654761,12.095238 C 59.80007,33.696635 48.396654,32.781491 38.175594,33.639881 18.546893,31.206018 15.478849,24.414087 14.741071,17.008928 Z"
       style="fill:#ffffff;stroke:none;stroke-width:0.264583px;stroke-linecap:butt;stroke-linejoin:miter;stroke-opacity:1;fill-opacity:1" />
    <path
       style="fill:#ffffff;fill-opacity:1;stroke:none;stroke-width:0.264583px;stroke-linecap:butt;stroke-linejoin:miter;stroke-opacity:1"
       d="m 71.437499,70.303571 c -3.408497,-2.642183 -6.99109,-4.405337 -11.374557,-5.052897 -8.334923,10.403131 -22.160623,10.206886 -32.13484,8.481765 -3.48961,2.893297 -5.410805,6.414523 -4.493578,10.178275 1.054095,7.994254 15.859297,6.323158 26.836309,4.157739 C 66.875725,81.854828 70.699721,77.70873 71.437499,70.303571 Z"
       id="path890"
       sodipodi:nodetypes="cccccc" />
    <path
       style="fill:#ffffff;fill-opacity:1;stroke:none;stroke-width:0.264583px;stroke-linecap:butt;stroke-linejoin:miter;stroke-opacity:1"
       d="m 76.35119,49.51488 c 3.799693,-6.045364 10.942937,-8.567896 25.32441,-9.827381 7.71639,1.35503 22.35941,2.964986 23.43452,9.827381 C 124.05603,62.044849 110.00677,61.885657 99.785714,62.744047 80.157012,60.310184 74.821111,57.298015 76.35119,49.51488 Z"
       id="path892"
       sodipodi:nodetypes="ccccc" />
    <path
       sodipodi:nodetypes="cccc"
       id="path894"
       d="m 32.505951,21.544642 c 0.519164,-5.728313 5.456605,-4.09283 8.693454,-5.291666 6.278287,-0.05854 7.293785,4.093146 8.693452,7.9375 -5.795635,0.995438 -11.591271,4.850944 -17.386906,-2.645834 z"
       style="fill:#ffa029;fill-opacity:1;stroke:none;stroke-width:0.264583px;stroke-linecap:butt;stroke-linejoin:miter;stroke-opacity:1" />
    <path
       style="fill:#c85037;fill-opacity:1;stroke:none;stroke-width:0.264583px;stroke-linecap:butt;stroke-linejoin:miter;stroke-opacity:1"
       d="m 110.36904,51.404761 c -0.51916,-5.728313 -5.45661,-4.09283 -8.69345,-5.291666 -6.278288,-0.05854 -7.293788,4.093146 -8.693448,7.9375 5.79563,0.995438 11.591258,4.850944 17.386898,-2.645834 z"
       id="path896"
       sodipodi:nodetypes="cccc" />
    <path
       sodipodi:nodetypes="cccc"
       id="path898"
       d="m 55.184516,77.485118 c -0.51916,-5.728313 -5.834586,-2.202949 -9.071426,-3.401785 -6.278288,-0.05854 -6.915812,2.203265 -8.315472,6.047619 5.417654,2.507343 11.591258,4.850944 17.386898,-2.645834 z"
       style="fill:#3f9d54;fill-opacity:1;stroke:none;stroke-width:0.264583px;stroke-linecap:butt;stroke-linejoin:miter;stroke-opacity:1" />
    <g
       id="g874">
      <path
         style="fill:none;stroke:#50162d;stroke-width:4.23333333;stroke-linecap:round;stroke-linejoin:round;stroke-miterlimit:4;stroke-dasharray:101.6,4.23333333;stroke-dashoffset:0;stroke-opacity:1"
         d="m 11.094599,61.87323 3.361375,-42.635941 c 0.94049,-11.9292347 51.773594,-9.155841 50.348518,3.096236 L 59.917406,64.35022 C 57.992686,80.897986 9.8187641,78.056004 11.094599,61.87323 Z"
         id="path847"
         sodipodi:nodetypes="sssss" />
      <path
         sodipodi:nodetypes="sssss"
         id="path849"
         d="M 125.24435,92.784005 124.90632,50.017102 C 124.81168,38.051224 75.955615,32.695151 76.101945,53.637871 l 0.266659,38.164493 c 0.116398,16.658916 49.004036,17.214126 48.875746,0.981641 z"
         style="fill:none;stroke:#50162d;stroke-width:4.23333333;stroke-linecap:round;stroke-linejoin:round;stroke-miterlimit:4;stroke-dasharray:101.6,4.23333333;stroke-dashoffset:0;stroke-opacity:1" />
      <path
         style="fill:none;stroke:#50162d;stroke-width:4.23333333;stroke-linecap:round;stroke-linejoin:round;stroke-miterlimit:4;stroke-dasharray:101.6,4.23333333;stroke-dashoffset:0;stroke-opacity:1"
         d="m 26.63671,74.06982 c -2.8121,2.891718 -4.21024,6.474223 -3.29133,10.741766 l 8.03385,37.310284 c 3.506798,16.28605 51.482862,6.87292 48.05126,-8.99323 L 70.389418,71.326956 c -0.676004,-3.125524 -4.66517,-5.079687 -10.064279,-5.874611"
         id="path851"
         sodipodi:nodetypes="cssssc" />
      <path
         style="fill:none;stroke:#50162d;stroke-width:4.23333333;stroke-linecap:round;stroke-linejoin:round;stroke-opacity:1;stroke-miterlimit:4;stroke-dasharray:none"
         d="M 15.497024,18.142857 C 13.114016,36.335376 62.490477,38.348605 64.255951,23.8125"
         id="path853"
         sodipodi:nodetypes="cc" />
      <path
         sodipodi:nodetypes="cc"
         id="path855"
         d="m 23.434524,83.154762 c 2.530683,13.656808 50.395239,3.952772 46.49107,-12.473214"
         style="fill:none;stroke:#50162d;stroke-width:4.23333;stroke-linecap:round;stroke-linejoin:round;stroke-miterlimit:4;stroke-dasharray:none;stroke-opacity:1" />
      <path
         style="fill:none;stroke:#50162d;stroke-width:4.23333;stroke-linecap:round;stroke-linejoin:round;stroke-miterlimit:4;stroke-dasharray:none;stroke-opacity:1"
         d="M 77.107143,51.782738 C 76.23604,65.439546 125.23452,69.342653 124.35416,49.892857"
         id="path857"
         sodipodi:nodetypes="cc" />
      <path
         style="fill:none;stroke:#50162d;stroke-width:4.23333;stroke-linecap:round;stroke-linejoin:round;stroke-miterlimit:4;stroke-dasharray:none;stroke-opacity:1"
         d="m 33.639882,23.434524 c -2.397765,-4.082256 4.500612,-7.659179 9.071428,-6.425596 4.285113,1.156477 8.697662,5.995741 4.913688,8.315477 -5.09477,3.12331 -11.006107,3.181957 -13.985116,-1.889881 z"
         id="path859"
         sodipodi:nodetypes="ssss" />
      <path
         sodipodi:nodetypes="ssss"
         id="path861"
         d="m 97.135947,46.428691 c 3.972493,-1.206044 11.880123,-0.834661 12.018193,3.897677 0.12945,4.436535 -5.52132,6.706362 -9.945294,6.348552 -7.106624,-0.574783 -7.701237,-8.537472 -2.072899,-10.246229 z"
         style="fill:none;stroke:#50162d;stroke-width:4.23333;stroke-linecap:round;stroke-linejoin:round;stroke-miterlimit:4;stroke-dasharray:none;stroke-opacity:1" />
      <path
         style="fill:none;stroke:#50162d;stroke-width:4.23333;stroke-linecap:round;stroke-linejoin:round;stroke-miterlimit:4;stroke-dasharray:none;stroke-opacity:1"
         d="m 53.208143,73.536531 c 1.306193,4.24187 -1.698152,7.787786 -6.057666,8.620967 -7.00308,1.338414 -12.375155,-3.226721 -7.948456,-7.100011"
         id="path863"
         sodipodi:nodetypes="csc" />
    </g>
  </g>
</svg>
