<?xml version="1.0" encoding="UTF-8" standalone="no"?>
<svg
   xmlns:dc="http://purl.org/dc/elements/1.1/"
   xmlns:cc="http://creativecommons.org/ns#"
   xmlns:rdf="http://www.w3.org/1999/02/22-rdf-syntax-ns#"
   xmlns:svg="http://www.w3.org/2000/svg"
   xmlns="http://www.w3.org/2000/svg"
   xmlns:sodipodi="http://sodipodi.sourceforge.net/DTD/sodipodi-0.dtd"
   xmlns:inkscape="http://www.inkscape.org/namespaces/inkscape"
   inkscape:export-ydpi="96"
   inkscape:export-xdpi="96"
   inkscape:export-filename="D:\Daniil\_misc\DebuDuet\assets\sprites\table.png"
   sodipodi:docname="table.svg"
   inkscape:version="1.0 (4035a4fb49, 2020-05-01)"
   id="svg8"
   version="1.1"
   viewBox="0 0 270.93333 270.93334"
   height="1024"
   width="1024">
  <defs
     id="defs2" />
  <sodipodi:namedview
     inkscape:snap-global="false"
     inkscape:window-maximized="1"
     inkscape:window-y="-8"
     inkscape:window-x="-8"
     inkscape:window-height="1017"
     inkscape:window-width="1920"
     units="px"
     showgrid="false"
     inkscape:document-rotation="0"
     inkscape:current-layer="layer1"
     inkscape:document-units="mm"
     inkscape:cy="345.24305"
     inkscape:cx="511.75697"
     inkscape:zoom="0.35"
     inkscape:pageshadow="2"
     inkscape:pageopacity="0.0"
     borderopacity="1.0"
     bordercolor="#666666"
     pagecolor="#ffffff"
     id="base" />
  <metadata
     id="metadata5">
    <rdf:RDF>
      <cc:Work
         rdf:about="">
        <dc:format>image/svg+xml</dc:format>
        <dc:type
           rdf:resource="http://purl.org/dc/dcmitype/StillImage" />
        <dc:title></dc:title>
      </cc:Work>
    </rdf:RDF>
  </metadata>
  <g
     id="layer1"
     inkscape:groupmode="layer"
     inkscape:label="Layer 1">
    <path
       sodipodi:nodetypes="cccccccccc"
       id="path857"
       d="m 69.769032,142.63066 c 8.713193,-21.32958 128.506018,-21.58965 133.204178,-0.88959 4.91612,25.09356 10.44778,61.21483 5.66964,71.05952 -6.69441,0.51395 -12.00841,-1.13962 -20.41071,-0.1107 -5.72588,3.44156 -9.2922,9.29567 -14.74107,12.20594 -14.16995,3.10375 -26.45569,-0.3872 -39.30952,-1.88988 -13.60714,1.67369 -27.21429,4.42363 -40.821433,4.15774 -8.905016,-1.18763 -15.115804,-9.06305 -19.815807,-11.61736 -5.924059,-3.40967 -14.002376,1.18629 -15.55739,-2.41362 1.915726,-23.50068 7.843155,-47.00137 11.782112,-70.50205 z"
       style="fill:#3f9d54;fill-opacity:1;stroke:none;stroke-width:0.264583px;stroke-linecap:butt;stroke-linejoin:miter;stroke-opacity:1" />
    <path
       sodipodi:nodetypes="ccccccccssssssscc"
       id="path864"
       d="m 58.56167,213.95597 c 3.501003,1.53771 8.197512,-0.97746 13.066562,0.12692 6.534362,4.70928 12.995755,9.46282 20.234202,12.52924 15.743976,1.6473 28.428756,-2.21192 42.574136,-3.44208 11.98996,1.27676 24.22153,3.51996 35.54685,2.13816 7.50201,-0.50805 11.19335,-8.7719 17.90706,-12.56167 l 21.38156,-0.26727 c 3.15723,-18.38213 -0.9708,-35.77082 -2.93997,-53.4539 0,0 -0.34221,23.45633 -4.49336,26.97681 -8.96231,7.60067 -13.07745,-24.73349 -24.82498,-25.03116 -7.24057,-0.18347 -3.72967,38.26732 -14.10828,36.34129 -15.52754,-2.88155 -19.36199,-33.15436 -35.09851,-31.82398 -13.74844,1.16231 -12.20529,36.01876 -25.56141,32.55688 -8.647867,-2.2415 -3.542929,-34.68979 -13.618172,-37.04315 -5.427669,-1.26778 -8.367188,26.96249 -18.260933,24.51974 -8.504967,-2.09987 -4.083583,-25.96189 -4.083583,-25.96189 -2.227246,18.35251 -10.176857,51.94541 -7.721172,54.39606 z"
       style="fill:#2f554d;fill-opacity:1;stroke:none;stroke-width:0.264583px;stroke-linecap:butt;stroke-linejoin:miter;stroke-opacity:1" />
    <path
       sodipodi:nodetypes="cccccc"
       id="path882"
       d="m 132.66964,223.00595 -0.18899,8.31548 c -14.16568,-0.0155 -17.18418,11.19586 6.04762,10.96131 16.71211,0.83733 26.00227,-10.71112 6.04762,-11.71727 v -6.2366 z"
       style="fill:#95aead;fill-opacity:1;stroke:none;stroke-width:0.264583px;stroke-linecap:butt;stroke-linejoin:miter;stroke-opacity:1" />
    <path
       sodipodi:nodetypes="cccccccc"
       id="path884"
       d="m 134.30293,235.53127 0.3341,-12.09395 8.0849,0.93545 0.46772,10.75759 c 1.64518,-1.45051 1.2539,-3.1273 1.40316,-4.74403 12.69011,0.57083 19.23383,9.67505 -5.74629,11.82668 -19.14676,1.01282 -23.68349,-10.49126 -6.81537,-11.02487 0.21168,1.8102 0.39531,3.5172 2.27178,4.34313 z"
       style="fill:#5c7382;fill-opacity:1;stroke:none;stroke-width:0.264583px;stroke-linecap:butt;stroke-linejoin:miter;stroke-opacity:1" />
    <g
       id="g880">
      <path
         style="fill:none;stroke:#50162d;stroke-width:0.529167;stroke-linecap:round;stroke-linejoin:round;stroke-miterlimit:4;stroke-dasharray:12.7, 0.529167;stroke-dashoffset:0;stroke-opacity:1"
         d="m 58.264757,208.47023 c 3.026476,-20.1969 5.479342,-35.31464 11.759859,-66.28284 3.661724,-18.05536 128.489684,-23.50186 133.100224,0 5.94923,30.32572 8.09372,48.41564 6.68173,67.08464 -0.4865,6.43244 -6.72588,1.72856 -19.23764,3.33382 -9.4705,1.21507 -10.66831,11.20958 -19.90788,12.6315 -11.33456,1.74432 -32.06775,-1.76169 -36.86774,-1.8864 -9.00794,-0.23403 -24.95042,4.5111 -38.835295,3.61548 -10.68632,-0.68931 -18.998614,-12.94503 -25.876364,-13.02349 -8.424015,-0.0961 -12.128871,3.28264 -10.816894,-5.47271 z"
         id="path847"
         sodipodi:nodetypes="ssssssssss" />
      <path
         style="fill:none;stroke:#50162d;stroke-width:0.529167;stroke-linecap:round;stroke-linejoin:round;stroke-miterlimit:4;stroke-dasharray:12.7, 0.529167;stroke-dashoffset:0;stroke-opacity:1"
         d="m 77.540586,148.66114 c 7.997835,4.51825 12.870514,3.13865 20.597488,4.84492 6.947386,1.53412 11.948216,5.15313 21.447666,3.49186"
         id="path849"
         sodipodi:nodetypes="csc" />
      <path
         sodipodi:nodetypes="cssc"
         id="path851"
         d="m 197.82681,146.77126 c -7.99784,4.51825 -10.0357,5.97347 -17.76267,7.67974 -3.69394,0.8157 -11.24426,-0.9218 -22.17878,0.83117 -9.63062,1.54393 -19.26705,4.27113 -26.1052,3.22766"
         style="fill:none;stroke:#50162d;stroke-width:0.529167;stroke-linecap:round;stroke-linejoin:round;stroke-miterlimit:4;stroke-dasharray:12.7, 0.529167;stroke-dashoffset:0;stroke-opacity:1" />
      <path
         style="fill:none;stroke:#50162d;stroke-width:0.529167;stroke-linecap:round;stroke-linejoin:round;stroke-miterlimit:4;stroke-dasharray:12.7, 0.529167;stroke-dashoffset:0;stroke-opacity:1"
         d="m 132.66963,223.57291 -0.37796,9.44941 c -0.16803,4.20113 12.39255,4.36049 12.28423,-0.18899 l -0.18899,-7.9375"
         id="path868"
         sodipodi:nodetypes="cssc" />
      <path
         style="fill:none;stroke:#50162d;stroke-width:0.529167;stroke-linecap:round;stroke-linejoin:round;stroke-miterlimit:4;stroke-dasharray:12.7, 0.529167;stroke-dashoffset:0;stroke-opacity:1"
         d="m 144.19791,230.37649 c 14.93045,-0.18899 17.87338,11.50452 -6.42559,11.71725 -21.87429,0.19151 -19.60612,-10.77232 -5.66964,-10.96131"
         id="path873"
         sodipodi:nodetypes="csc" />
    </g>
  </g>
</svg>
